<?xml version="1.0" encoding="utf-8"?>
<!-- Generator: Adobe Illustrator 22.0.1, SVG Export Plug-In . SVG Version: 6.00 Build 0)  -->
<svg version="1.1" id="Layer_1" xmlns="http://www.w3.org/2000/svg" xmlns:xlink="http://www.w3.org/1999/xlink" x="0px" y="0px"
	 viewBox="0 0 612 792" style="enable-background:new 0 0 612 792;" xml:space="preserve">
<style type="text/css">
	.st0{fill:#231F20;}
</style>
<path class="st0" d="M318.3,130.7l-279,482.7l-4.7,8h566L318.3,130.7z M541,589.3h1l-80-140c0,0,12.5,88.2-75,139v-27.5
	c27.2-17.7,54.8-49.9,50.6-107.2c-2.6-36-15.9-60.2-32.2-76.4v-28.9c0.9,0.6,1.3,1,1.3,1l-83.3-142V272c0,0,12.7,14,0,30v18.7
	c34.4-3.5,72.3,21,81.3,27.2v28.7c-31-30.3-72.4-32.3-72.4-32.3h-2c0,0,3.3,10.7-6.7,17v53.3c8.3,0,9.2,11.7,9.2,11.7
	s-1.5,12.3-9.2,12.7v17c0,0,9.6,33.2,10.7,41.7c1.7,12.7-10.7,16.3-10.7,16.3v16.7c0,0,6.2,13.4,8.7,24.3c0.9,4.1-6.4,6.1-6.4,6.1
	c0,10,11.8,19.9,11.8,19.9s24.1-3.9,48.8-19.7v27.4c-0.3,0.2-0.7,0.4-1,0.6h155v24H95v-24h158.3c-0.5-0.3-0.9-0.5-1.4-0.8h0.1v-26.8
	c24.6,15.7,48.7,19.6,48.7,19.6s11.8-9.9,11.8-19.9c0,0-7.4-2.1-6.4-6.1c2.5-10.9,8.7-24.3,8.7-24.3v-16.7c0,0-12.3-3.7-10.7-16.3
	c1.1-8.4,10.7-41.7,10.7-41.7v-17c-7.7-0.3-9.2-12.7-9.2-12.7s0.8-11.7,9.2-11.7v-53.3c-10-6.3-6.7-17-6.7-17h-2c0,0-41.9,2-73,32.8
	v-29.3c8.4-5.8,46.8-31,81.7-27.5V302c-12.7-16,0-30,0-30v-64.7l-83.3,142c0,0,0.3-0.3,1-0.7v29.5c-16,16.2-29,40.2-31.7,75.8
	c-4.2,57.4,23.4,89.6,50.7,107.3v26.9c-91-53-74.5-142.9-74.2-144.4L94.4,588.7l0,0.1l-0.3,0.6h0.3v24h-41l264.7-460l265.3,460H541
	V589.3z"/>
</svg>
